<svg width="1360" height="1040" viewBox="0 0 680 520" role="img" xmlns="http://www.w3.org/2000/svg">
<title>Artist's rendition — Smartonian Golf Club and Tent Revival Site, Clearview, Oklahoma, c. 1931</title>
<rect width="680" height="520" fill="#e8dcc0"/>
<rect x="10" y="10" width="660" height="500" fill="#dfd1a8" rx="1"/>
<rect x="10" y="10" width="660" height="38" fill="#9a8e7a" rx="1"/>
<line x1="10" y1="29" x2="670" y2="29" stroke="#b0a484" stroke-width="1" stroke-dasharray="18,10"/>
<line x1="10" y1="46" x2="670" y2="46" stroke="#7a6e58" stroke-width="1.5"/>
<rect x="10" y="46" width="660" height="464" fill="#c4b28a"/>
<g fill="#5a4a38"><rect x="60" y="18" width="50" height="18" rx="3"/><rect x="68" y="13" width="32" height="12" rx="2" fill="#6a5a48"/><circle cx="68" cy="37" r="5" fill="#3a2a18"/><circle cx="103" cy="37" r="5" fill="#3a2a18"/></g>
<g fill="#4a3e2e"><rect x="520" y="18" width="50" height="18" rx="3"/><rect x="528" y="13" width="32" height="12" rx="2" fill="#5a4e3e"/><circle cx="528" cy="37" r="5" fill="#3a2a18"/><circle cx="563" cy="37" r="5" fill="#3a2a18"/></g>
<polygon points="20,510 130,510 650,66 590,54" fill="#a09080" opacity="0.85"/>
<g stroke="#6a5038" stroke-width="3.5" stroke-linecap="round" opacity="0.75"><line x1="55" y1="505" x2="100" y2="510"/><line x1="100" y1="488" x2="145" y2="493"/><line x1="145" y1="468" x2="190" y2="473"/><line x1="190" y1="448" x2="235" y2="453"/><line x1="235" y1="428" x2="280" y2="433"/><line x1="278" y1="406" x2="323" y2="411"/><line x1="321" y1="385" x2="366" y2="390"/><line x1="364" y1="364" x2="409" y2="369"/><line x1="407" y1="343" x2="452" y2="348"/><line x1="450" y1="322" x2="495" y2="327"/><line x1="493" y1="301" x2="538" y2="306"/><line x1="536" y1="280" x2="581" y2="285"/><line x1="579" y1="259" x2="624" y2="264"/><line x1="615" y1="234" x2="652" y2="238"/></g>
<line x1="35" y1="510" x2="638" y2="58" stroke="#787060" stroke-width="2.5"/>
<line x1="80" y1="510" x2="654" y2="68" stroke="#787060" stroke-width="2.5"/>
<text transform="rotate(-37,320,390)" x="270" y="390" font-family="Georgia,serif" fill="#5a4a30" font-size="9" font-style="italic" opacity="0.9">Ft. Smith &amp; Western Railroad</text>
<polygon points="10,46 10,510 115,510 620,54 10,46" fill="#bca882" opacity="0.6"/>
<g transform="translate(110,200)"><polygon points="-10,100 155,100 155,10 -10,10" fill="#d4c490" stroke="#8a7848" stroke-width="1.5"/><polygon points="-10,10 72,-28 155,10" fill="#c8b87e" stroke="#8a7848" stroke-width="1.5"/><line x1="-10" y1="35" x2="155" y2="35" stroke="#c0ae70" stroke-width="0.7"/><line x1="-10" y1="60" x2="155" y2="60" stroke="#c0ae70" stroke-width="0.7"/><line x1="-10" y1="82" x2="155" y2="82" stroke="#c0ae70" stroke-width="0.7"/><line x1="72" y1="-26" x2="72" y2="100" stroke="#6a5030" stroke-width="2.5"/><line x1="-10" y1="10" x2="-10" y2="100" stroke="#6a5030" stroke-width="2"/><line x1="155" y1="10" x2="155" y2="100" stroke="#6a5030" stroke-width="2"/><line x1="72" y1="-26" x2="-40" y2="115" stroke="#9a8860" stroke-width="0.9"/><line x1="72" y1="-26" x2="185" y2="115" stroke="#9a8860" stroke-width="0.9"/><line x1="72" y1="-26" x2="10" y2="118" stroke="#9a8860" stroke-width="0.9"/><line x1="72" y1="-26" x2="135" y2="118" stroke="#9a8860" stroke-width="0.9"/><rect x="35" y="60" width="75" height="40" fill="#b8a868" stroke="#8a7848" stroke-width="1"/><g fill="#4a3820" opacity="0.7"><ellipse cx="20" cy="90" rx="6" ry="8"/><circle cx="20" cy="80" r="5"/><ellipse cx="40" cy="90" rx="6" ry="8"/><circle cx="40" cy="80" r="5"/><ellipse cx="60" cy="88" rx="5" ry="7"/><circle cx="60" cy="79" r="4"/><ellipse cx="120" cy="90" rx="6" ry="8"/><circle cx="120" cy="80" r="5"/><ellipse cx="140" cy="90" rx="6" ry="8"/><circle cx="140" cy="80" r="5"/></g></g>
<text x="136" y="328" font-family="Georgia,serif" fill="#4a3820" font-size="10" font-style="italic">Tent Revival</text>
<rect x="86" y="328" width="30" height="8" fill="#8a6838" rx="1" transform="rotate(-5,101,332)"/>
<rect x="72" y="350" width="28" height="8" fill="#8a6838" rx="1"/>
<g fill="#4a3820"><ellipse cx="92" cy="362" rx="5" ry="8"/><circle cx="92" cy="352" r="5"/><ellipse cx="72" cy="368" rx="5" ry="8"/><circle cx="72" cy="358" r="5"/><ellipse cx="108" cy="358" rx="4" ry="7"/><circle cx="108" cy="349" r="4"/></g>
<rect x="52" y="180" width="48" height="22" fill="#d8c888" stroke="#8a7040" stroke-width="1"/><text x="76" y="190" text-anchor="middle" font-family="Georgia,serif" fill="#4a3820" font-size="7">Tent Revival</text><text x="76" y="198" text-anchor="middle" font-family="Georgia,serif" fill="#4a3820" font-size="7">All Welcome</text><line x1="76" y1="202" x2="76" y2="225" stroke="#6a5030" stroke-width="1.5"/>
<path d="M220,480 C200,465 198,430 230,410 C258,393 295,405 305,430 C315,455 295,478 270,482 Z" fill="#7a9450" stroke="#628038" stroke-width="1.2"/>
<path d="M300,425 C315,405 345,398 370,415 C395,432 395,465 370,478 C345,490 310,484 300,470 Z" fill="#7a9450" stroke="#628038" stroke-width="1.2"/>
<path d="M390,370 C368,358 360,320 388,300 C412,282 450,292 462,320 C474,347 458,372 432,378 Z" fill="#7a9450" stroke="#628038" stroke-width="1.2"/>
<path d="M455,310 C470,290 500,285 520,305 C540,325 538,358 515,368 C492,378 462,368 455,352 Z" fill="#7a9450" stroke="#628038" stroke-width="1.2"/>
<path d="M498,238 C478,225 472,188 502,170 C528,154 562,166 568,196 C574,224 556,244 530,248 Z" fill="#7a9450" stroke="#628038" stroke-width="1.2"/>
<path d="M558,178 C572,160 598,155 616,175 C632,195 628,228 606,235 C584,242 560,228 556,210 Z" fill="#7a9450" stroke="#628038" stroke-width="1.2"/>
<path d="M340,468 C320,460 314,430 338,416 C358,404 388,412 394,436 C400,460 378,474 358,474 Z" fill="#7a9450" stroke="#628038" stroke-width="1.2"/>
<circle cx="240" cy="444" r="4" fill="#4a3018"/><line x1="240" y1="440" x2="240" y2="406" stroke="#6a5038" stroke-width="1.5"/><polygon points="240,406 262,412 240,418" fill="#c03828"/>
<circle cx="370" cy="465" r="4" fill="#4a3018"/><line x1="370" y1="461" x2="370" y2="427" stroke="#6a5038" stroke-width="1.5"/><polygon points="370,427 392,433 370,439" fill="#c03828"/>
<circle cx="405" cy="340" r="4" fill="#4a3018"/><line x1="405" y1="336" x2="405" y2="302" stroke="#6a5038" stroke-width="1.5"/><polygon points="405,302 427,308 405,314" fill="#c03828"/>
<circle cx="518" cy="350" r="4" fill="#4a3018"/><line x1="518" y1="346" x2="518" y2="312" stroke="#6a5038" stroke-width="1.5"/><polygon points="518,312 540,318 518,324" fill="#c03828"/>
<circle cx="542" cy="215" r="4" fill="#4a3018"/><line x1="542" y1="211" x2="542" y2="175" stroke="#6a5038" stroke-width="1.5"/><polygon points="542,175 564,181 542,187" fill="#c03828"/>
<circle cx="358" cy="440" r="4" fill="#4a3018"/><line x1="358" y1="436" x2="358" y2="402" stroke="#6a5038" stroke-width="1.5"/><polygon points="358,402 380,408 358,414" fill="#c03828"/>
<g stroke="#807860" stroke-width="1.5"><line x1="222" y1="410" x2="222" y2="370"/><circle cx="222" cy="368" r="6" fill="#e0cc50" stroke="#907a30" stroke-width="1"/><line x1="420" y1="380" x2="420" y2="340"/><circle cx="420" cy="338" r="6" fill="#e0cc50" stroke="#907a30" stroke-width="1"/><line x1="500" y1="270" x2="500" y2="232"/><circle cx="500" cy="230" r="6" fill="#e0cc50" stroke="#907a30" stroke-width="1"/><line x1="580" y1="400" x2="580" y2="360"/><circle cx="580" cy="358" r="6" fill="#e0cc50" stroke="#907a30" stroke-width="1"/><line x1="310" y1="456" x2="310" y2="416"/><circle cx="310" cy="414" r="6" fill="#e0cc50" stroke="#907a30" stroke-width="1"/></g>
<ellipse cx="460" cy="420" rx="28" ry="10" fill="#b83828" opacity="0.85"/><line x1="460" y1="412" x2="460" y2="435" stroke="#7a2818" stroke-width="2"/>
<rect x="280" y="465" width="26" height="8" fill="#8a6838" rx="1"/><rect x="470" y="370" width="26" height="8" fill="#8a6838" rx="1"/><rect x="545" y="268" width="26" height="8" fill="#8a6838" rx="1"/>
<g fill="#3a2818"><ellipse cx="255" cy="462" rx="5" ry="8"/><circle cx="255" cy="452" r="5"/><line x1="255" y1="470" x2="263" y2="486" stroke="#3a2818" stroke-width="1.5"/><ellipse cx="418" cy="360" rx="5" ry="8"/><circle cx="418" cy="350" r="5"/><line x1="418" y1="368" x2="425" y2="382" stroke="#3a2818" stroke-width="1.5"/><ellipse cx="435" cy="362" rx="4" ry="7" fill="#5a3e20"/><circle cx="435" cy="353" r="4" fill="#5a3e20"/><ellipse cx="558" cy="235" rx="5" ry="8"/><circle cx="558" cy="225" r="5"/><line x1="558" y1="243" x2="565" y2="257" stroke="#3a2818" stroke-width="1.5"/><ellipse cx="534" cy="365" rx="4" ry="7" fill="#4a3018"/><circle cx="534" cy="356" r="4" fill="#4a3018"/><ellipse cx="548" cy="363" rx="4" ry="7"/><circle cx="548" cy="354" r="4"/></g>
<line x1="600" y1="120" x2="600" y2="145" stroke="#6a4e28" stroke-width="3"/><ellipse cx="600" cy="102" rx="26" ry="22" fill="#486038"/><ellipse cx="600" cy="97" rx="20" ry="17" fill="#567040"/>
<line x1="52" y1="148" x2="52" y2="175" stroke="#6a4e28" stroke-width="3"/><ellipse cx="52" cy="130" rx="24" ry="20" fill="#486038"/><ellipse cx="52" cy="125" rx="18" ry="15" fill="#567040"/>
<line x1="490" y1="460" x2="490" y2="480" stroke="#6a4e28" stroke-width="3"/><ellipse cx="490" cy="443" rx="22" ry="18" fill="#486038"/>
<line x1="620" y1="455" x2="620" y2="480" stroke="#6a4e28" stroke-width="3"/><ellipse cx="620" cy="438" rx="20" ry="17" fill="#486038"/>
<rect x="258" y="52" width="164" height="30" fill="#dcc870" stroke="#8a7038" stroke-width="2" rx="2"/><text x="340" y="67" text-anchor="middle" font-family="Georgia,serif" fill="#3a2a10" font-weight="bold" font-size="10">SMARTONIAN GOLF CLUB</text><text x="340" y="78" text-anchor="middle" font-family="Georgia,serif" fill="#4a3820" font-size="8">Clearview, Oklahoma</text><line x1="280" y1="82" x2="280" y2="96" stroke="#6a5028" stroke-width="1.5"/><line x1="400" y1="82" x2="400" y2="96" stroke="#6a5028" stroke-width="1.5"/>
<rect x="10" y="46" width="660" height="464" fill="none" stroke="#8a7850" stroke-width="1" stroke-dasharray="6,5"/>
<g transform="translate(640,100)" stroke="#7a6a48" stroke-width="1"><line x1="0" y1="-14" x2="0" y2="14"/><line x1="-14" y1="0" x2="14" y2="0"/><polygon points="0,-14 -4,-6 4,-6" fill="#7a6a48" stroke="none"/><text x="0" y="-17" text-anchor="middle" font-family="Georgia,serif" fill="#4a3820" font-size="9">N</text></g>
<rect x="10" y="488" width="660" height="22" fill="#c8b478" opacity="0.8"/>
<text x="340" y="502" text-anchor="middle" font-family="Georgia,serif" fill="#4a3220" font-size="9" font-style="italic">Artist's rendition — Smartonian Golf Club &amp; Tent Revival Site, Clearview, Okla., c. 1931 · Owners: Nannie Talton &amp; W.L. Bush</text>
</svg>